<svg width="22" height="22" viewBox="0 0 22 22" fill="none" xmlns="http://www.w3.org/2000/svg">
<g clip-path="url(#clip0_903_9216)">
<path d="M7.07148 19.6429L0.785767 21.2143L2.3572 16.5001V2.3572C2.3572 1.94042 2.52276 1.54073 2.81745 1.24603C3.11216 0.951328 3.51185 0.785767 3.92862 0.785767H19.6429C20.0597 0.785767 20.4594 0.951328 20.7541 1.24603C21.0487 1.54073 21.2143 1.94042 21.2143 2.3572V18.0715C21.2143 18.4882 21.0487 18.888 20.7541 19.1826C20.4594 19.4773 20.0597 19.6429 19.6429 19.6429H7.07148Z" stroke="#FFCB2A" stroke-width="1.3" stroke-linecap="round" stroke-linejoin="round"/>
<path d="M9.42859 7.85715C9.42859 7.39095 9.56683 6.93522 9.82585 6.5476C10.0848 6.15996 10.453 5.85783 10.8837 5.67943C11.3144 5.50103 11.7883 5.45434 12.2456 5.54529C12.7028 5.63625 13.1228 5.86074 13.4525 6.1904C13.7821 6.52005 14.0066 6.94005 14.0976 7.3973C14.1885 7.85454 14.1419 8.32848 13.9634 8.7592C13.785 9.18989 13.4829 9.55803 13.0953 9.81703C12.7077 10.0761 12.2519 10.2143 11.7857 10.2143V11.7857" stroke="#FFCB2A" stroke-width="1.3" stroke-linecap="round" stroke-linejoin="round"/>
<path d="M11.7858 15.7143C11.5688 15.7143 11.3929 15.5384 11.3929 15.3214C11.3929 15.1045 11.5688 14.9286 11.7858 14.9286" stroke="#FFCB2A" stroke-width="1.3" stroke-linecap="round" stroke-linejoin="round"/>
<path d="M11.7858 15.7143C12.0027 15.7143 12.1786 15.5384 12.1786 15.3214C12.1786 15.1045 12.0027 14.9286 11.7858 14.9286" stroke="#FFCB2A" stroke-width="1.3" stroke-linecap="round" stroke-linejoin="round"/>
</g>
<defs>
<clipPath id="clip0_903_9216">
<rect width="22" height="22" fill="white"/>
</clipPath>
</defs>
</svg>
